HIERARCHY
ROOT mixamorig:Hips
{
	OFFSET 0.000000 3.528733 0.000000
	CHANNELS 6 Xposition Yposition Zposition Xrotation Yrotation Zrotation
	JOINT mixamorig:Spine
	{
		OFFSET 0.000000 0.284700 -0.015200
		CHANNELS 3 Xrotation Yrotation Zrotation
		JOINT mixamorig:Spine1
		{
			OFFSET 0.000000 0.332125 -0.017771
			CHANNELS 3 Xrotation Yrotation Zrotation
			JOINT mixamorig:Spine2
			{
				OFFSET 0.000000 0.379557 -0.020309
				CHANNELS 3 Xrotation Yrotation Zrotation
				JOINT mixamorig:Neck
				{
					OFFSET 0.000000 0.426989 -0.022847
					CHANNELS 3 Xrotation Yrotation Zrotation
					JOINT mixamorig:Head
					{
						OFFSET 0.000000 0.288600 0.098000
						CHANNELS 3 Xrotation Yrotation Zrotation
						JOINT mixamorig:HeadTop_End
						{
							OFFSET 0.000000 0.712700 0.242000
							CHANNELS 3 Xrotation Yrotation Zrotation
							End Site
							{
								OFFSET 0.000000 0.752666 0.000000
							}
						}
					}
				}
				JOINT mixamorig:LeftShoulder
				{
					OFFSET 0.202600 0.346984 -0.022672
					CHANNELS 3 Xrotation Yrotation Zrotation
					JOINT mixamorig:LeftArm
					{
						OFFSET 0.427337 -0.109325 0.000307
						CHANNELS 3 Xrotation Yrotation Zrotation
						JOINT mixamorig:LeftForeArm
						{
							OFFSET 0.849600 0.000000 0.000000
							CHANNELS 3 Xrotation Yrotation Zrotation
							JOINT mixamorig:LeftHand
							{
								OFFSET 0.753900 0.000000 0.000000
								CHANNELS 3 Xrotation Yrotation Zrotation
								JOINT mixamorig:LeftHandThumb1
								{
									OFFSET 0.136012 -0.086473 0.045448
									CHANNELS 3 Xrotation Yrotation Zrotation
									JOINT mixamorig:LeftHandThumb2
									{
										OFFSET 0.103772 -0.059913 0.059913
										CHANNELS 3 Xrotation Yrotation Zrotation
										JOINT mixamorig:LeftHandThumb3
										{
											OFFSET 0.095779 -0.055298 0.055298
											CHANNELS 3 Xrotation Yrotation Zrotation
											JOINT mixamorig:LeftHandThumb4
											{
												OFFSET 0.073275 -0.042305 0.042305
												CHANNELS 3 Xrotation Yrotation Zrotation
												End Site
												{
													OFFSET 0.065698 -0.038445 0.056164
												}
											}
										}
									}
								}
								JOINT mixamorig:LeftHandIndex1
								{
									OFFSET 0.449965 -0.020370 0.085418
									CHANNELS 3 Xrotation Yrotation Zrotation
									JOINT mixamorig:LeftHandIndex2
									{
										OFFSET 0.102424 0.000000 -0.000000
										CHANNELS 3 Xrotation Yrotation Zrotation
										JOINT mixamorig:LeftHandIndex3
										{
											OFFSET 0.096306 0.000000 -0.000000
											CHANNELS 3 Xrotation Yrotation Zrotation
											JOINT mixamorig:LeftHandIndex4
											{
												OFFSET 0.078408 0.000000 -0.000000
												CHANNELS 3 Xrotation Yrotation Zrotation
												End Site
												{
													OFFSET 0.078400 -0.000010 -0.001100
												}
											}
										}
									}
								}
								JOINT mixamorig:LeftHandMiddle1
								{
									OFFSET 0.430485 0.000000 0.000000
									CHANNELS 3 Xrotation Yrotation Zrotation
									JOINT mixamorig:LeftHandMiddle2
									{
										OFFSET 0.112203 0.000000 0.000000
										CHANNELS 3 Xrotation Yrotation Zrotation
										JOINT mixamorig:LeftHandMiddle3
										{
											OFFSET 0.108209 0.000000 0.000000
											CHANNELS 3 Xrotation Yrotation Zrotation
											JOINT mixamorig:LeftHandMiddle4
											{
												OFFSET 0.087466 0.000000 0.000000
												CHANNELS 3 Xrotation Yrotation Zrotation
												End Site
												{
													OFFSET 0.087400 -0.000057 -0.003400
												}
											}
										}
									}
								}
								JOINT mixamorig:LeftHandRing1
								{
									OFFSET 0.364574 -0.002440 -0.092011
									CHANNELS 3 Xrotation Yrotation Zrotation
									JOINT mixamorig:LeftHandRing2
									{
										OFFSET 0.114832 0.000000 0.000000
										CHANNELS 3 Xrotation Yrotation Zrotation
										JOINT mixamorig:LeftHandRing3
										{
											OFFSET 0.104409 0.000000 0.000000
											CHANNELS 3 Xrotation Yrotation Zrotation
											JOINT mixamorig:LeftHandRing4
											{
												OFFSET 0.080424 0.000000 0.000000
												CHANNELS 3 Xrotation Yrotation Zrotation
												End Site
												{
													OFFSET 0.080200 -0.000053 -0.006000
												}
											}
										}
									}
								}
								JOINT mixamorig:LeftHandPinky1
								{
									OFFSET 0.312269 -0.016255 -0.171399
									CHANNELS 3 Xrotation Yrotation Zrotation
									JOINT mixamorig:LeftHandPinky2
									{
										OFFSET 0.087028 0.000000 0.000000
										CHANNELS 3 Xrotation Yrotation Zrotation
										JOINT mixamorig:LeftHandPinky3
										{
											OFFSET 0.073733 0.000000 0.000000
											CHANNELS 3 Xrotation Yrotation Zrotation
											JOINT mixamorig:LeftHandPinky4
											{
												OFFSET 0.056250 0.000000 0.000000
												CHANNELS 3 Xrotation Yrotation Zrotation
												End Site
												{
													OFFSET 0.056100 -0.000056 -0.004100
												}
											}
										}
									}
								}
							}
						}
					}
				}
				JOINT mixamorig:RightShoulder
				{
					OFFSET -0.202600 0.346968 -0.022971
					CHANNELS 3 Xrotation Yrotation Zrotation
					JOINT mixamorig:RightArm
					{
						OFFSET -0.427342 -0.109309 -0.000307
						CHANNELS 3 Xrotation Yrotation Zrotation
						JOINT mixamorig:RightForeArm
						{
							OFFSET -0.849600 0.000000 -0.000000
							CHANNELS 3 Xrotation Yrotation Zrotation
							JOINT mixamorig:RightHand
							{
								OFFSET -0.753900 0.000000 -0.000000
								CHANNELS 3 Xrotation Yrotation Zrotation
								JOINT mixamorig:RightHandThumb1
								{
									OFFSET -0.139217 -0.077736 0.046135
									CHANNELS 3 Xrotation Yrotation Zrotation
									JOINT mixamorig:RightHandThumb2
									{
										OFFSET -0.102889 -0.059403 0.059403
										CHANNELS 3 Xrotation Yrotation Zrotation
										JOINT mixamorig:RightHandThumb3
										{
											OFFSET -0.097122 -0.056073 0.056073
											CHANNELS 3 Xrotation Yrotation Zrotation
											JOINT mixamorig:RightHandThumb4
											{
												OFFSET -0.076714 -0.044291 0.044291
												CHANNELS 3 Xrotation Yrotation Zrotation
												End Site
												{
													OFFSET -0.072157 -0.042014 0.053259
												}
											}
										}
									}
								}
								JOINT mixamorig:RightHandIndex1
								{
									OFFSET -0.450325 -0.003448 0.076701
									CHANNELS 3 Xrotation Yrotation Zrotation
									JOINT mixamorig:RightHandIndex2
									{
										OFFSET -0.104343 0.000000 -0.000000
										CHANNELS 3 Xrotation Yrotation Zrotation
										JOINT mixamorig:RightHandIndex3
										{
											OFFSET -0.097003 0.000000 -0.000000
											CHANNELS 3 Xrotation Yrotation Zrotation
											JOINT mixamorig:RightHandIndex4
											{
												OFFSET -0.081630 0.000000 -0.000000
												CHANNELS 3 Xrotation Yrotation Zrotation
												End Site
												{
													OFFSET -0.081600 -0.000082 -0.002198
												}
											}
										}
									}
								}
								JOINT mixamorig:RightHandMiddle1
								{
									OFFSET -0.397234 0.000000 -0.000000
									CHANNELS 3 Xrotation Yrotation Zrotation
									JOINT mixamorig:RightHandMiddle2
									{
										OFFSET -0.115313 0.000000 -0.000000
										CHANNELS 3 Xrotation Yrotation Zrotation
										JOINT mixamorig:RightHandMiddle3
										{
											OFFSET -0.121324 0.000000 -0.000000
											CHANNELS 3 Xrotation Yrotation Zrotation
											JOINT mixamorig:RightHandMiddle4
											{
												OFFSET -0.103502 0.000000 0.000000
												CHANNELS 3 Xrotation Yrotation Zrotation
												End Site
												{
													OFFSET -0.103400 -0.000083 -0.004599
												}
											}
										}
									}
								}
								JOINT mixamorig:RightHandRing1
								{
									OFFSET -0.356229 0.006227 -0.097026
									CHANNELS 3 Xrotation Yrotation Zrotation
									JOINT mixamorig:RightHandRing2
									{
										OFFSET -0.116123 0.000000 0.000000
										CHANNELS 3 Xrotation Yrotation Zrotation
										JOINT mixamorig:RightHandRing3
										{
											OFFSET -0.105608 0.000000 0.000000
											CHANNELS 3 Xrotation Yrotation Zrotation
											JOINT mixamorig:RightHandRing4
											{
												OFFSET -0.089388 0.000000 0.000000
												CHANNELS 3 Xrotation Yrotation Zrotation
												End Site
												{
													OFFSET -0.089200 -0.000198 -0.005797
												}
											}
										}
									}
								}
								JOINT mixamorig:RightHandPinky1
								{
									OFFSET -0.319258 -0.005155 -0.189362
									CHANNELS 3 Xrotation Yrotation Zrotation
									JOINT mixamorig:RightHandPinky2
									{
										OFFSET -0.084919 0.000000 0.000000
										CHANNELS 3 Xrotation Yrotation Zrotation
										JOINT mixamorig:RightHandPinky3
										{
											OFFSET -0.068357 0.000000 0.000000
											CHANNELS 3 Xrotation Yrotation Zrotation
											JOINT mixamorig:RightHandPinky4
											{
												OFFSET -0.053427 0.000000 0.000000
												CHANNELS 3 Xrotation Yrotation Zrotation
												End Site
												{
													OFFSET -0.053400 -0.000117 -0.001696
												}
											}
										}
									}
								}
							}
						}
					}
				}
			}
		}
	}
	JOINT mixamorig:LeftUpLeg
	{
		OFFSET 0.302300 -0.158000 -0.006800
		CHANNELS 3 Xrotation Yrotation Zrotation
		JOINT mixamorig:LeftLeg
		{
			OFFSET -0.021195 -1.512800 -0.072827
			CHANNELS 3 Xrotation Yrotation Zrotation
			JOINT mixamorig:LeftFoot
			{
				OFFSET 0.021196 -1.499076 -0.232845
				CHANNELS 3 Xrotation Yrotation Zrotation
				JOINT mixamorig:LeftToeBase
				{
					OFFSET 0.176214 -0.335644 0.384848
					CHANNELS 3 Xrotation Yrotation Zrotation
					JOINT mixamorig:LeftToe_End
					{
						OFFSET 0.078950 -0.008059 0.195507
						CHANNELS 3 Xrotation Yrotation Zrotation
						End Site
						{
							OFFSET 0.078950 -0.008059 0.195507
						}
					}
				}
			}
		}
	}
	JOINT mixamorig:RightUpLeg
	{
		OFFSET -0.302300 -0.158000 -0.006600
		CHANNELS 3 Xrotation Yrotation Zrotation
		JOINT mixamorig:RightLeg
		{
			OFFSET 0.021196 -1.512831 -0.074247
			CHANNELS 3 Xrotation Yrotation Zrotation
			JOINT mixamorig:RightFoot
			{
				OFFSET -0.021196 -1.499093 -0.231430
				CHANNELS 3 Xrotation Yrotation Zrotation
				JOINT mixamorig:RightToeBase
				{
					OFFSET -0.176206 -0.335620 0.376547
					CHANNELS 3 Xrotation Yrotation Zrotation
					JOINT mixamorig:RightToe_End
					{
						OFFSET -0.078935 -0.008056 0.196268
						CHANNELS 3 Xrotation Yrotation Zrotation
						End Site
						{
							OFFSET -0.078935 -0.008056 0.196268
						}
					}
				}
			}
		}
	}
}
MOTION
Frames: 4
Frame Time: 0.016667
-0.185813 3.088210 0.190534 -7.456867 1.646083 -4.683377 18.668010 2.459356 4.309766 4.249570 0.142479 2.440814 4.223805 0.209870 2.459949 -4.013687 0.514613 0.977017 -8.083963 -0.221104 0.886424 0.000001 0.000000 0.000001 0.036352 1.688031 2.691749 23.390481 -27.522751 -49.651145 0.000023 -76.011816 0.000028 -0.383725 -8.205790 15.258043 -1.805332 14.608656 7.803175 4.820934 18.910110 1.546116 0.375513 12.515279 3.566398 -0.000000 0.000000 0.000003 0.000002 -0.000001 0.000010 0.109340 1.224727 -10.203898 0.109349 1.224719 -10.203889 -0.000000 0.000001 -0.000003 0.010264 0.376741 -3.123229 0.094500 1.139140 -9.483822 0.119198 1.278215 -10.654741 0.000002 -0.000000 0.000000 0.052475 0.850230 -7.063659 0.125648 1.312003 -10.939999 0.142827 1.397991 -11.666942 0.000002 -0.000000 0.000001 1.032668 5.464098 -12.101895 0.160859 -2.552510 -13.058194 0.165431 1.503239 -12.559617 0.000001 -0.000004 -0.000001 0.779431 -2.086207 11.696194 31.340869 29.467584 22.989233 -0.000006 73.837828 -0.000026 10.959231 10.890883 -22.887575 -2.167946 -15.542123 -8.494153 5.697556 -20.650910 -1.018587 -0.236531 -11.852630 -3.315953 -0.000004 0.000000 -0.000000 0.000000 0.000007 -0.000000 0.065383 -0.953273 7.847548 0.065397 -0.953289 7.847560 -0.000001 0.000001 0.000001 0.019787 -0.525448 4.315882 0.096565 -1.157095 9.540100 0.117342 -1.274633 10.519879 -0.000002 0.000001 0.000002 0.100057 -1.177730 9.711823 0.192781 -1.629186 13.496531 0.213486 -1.713091 14.206347 -0.000000 0.000003 -0.000001 0.314713 -2.072093 17.270642 0.314720 -2.072125 17.270642 0.314713 -2.072098 17.270647 0.000000 -0.000002 0.000000 -45.446597 -5.140721 6.404818 72.206363 9.043940 4.230948 6.052379 6.489297 1.604656 -3.657516 -0.000015 -0.000002 0.000002 0.000000 -0.000000 -26.207492 -16.611679 10.966351 51.441409 3.442412 -2.205413 -15.268300 2.244987 -12.339148 -0.000026 0.000002 0.000015 -0.000000 0.000002 -0.000000 
-0.201060 3.093461 0.228168 -7.569031 -0.158531 -5.691394 19.025801 3.739514 4.285127 4.508321 0.324157 2.656661 4.479973 0.399556 2.676423 -2.410070 0.353750 0.877361 -9.344331 -0.914958 1.294835 -0.000000 0.000000 -0.000000 0.080225 1.743157 1.562947 27.564598 -24.937034 -48.500282 -0.000003 -75.478884 0.000002 -3.616696 -7.700552 15.121393 -1.805325 14.608654 7.803173 4.820937 18.910106 1.546114 0.375515 12.515275 3.566397 -0.000001 0.000000 -0.000001 -0.000005 -0.000000 -0.000008 0.109339 1.224732 -10.203900 0.109348 1.224723 -10.203890 0.000002 0.000003 -0.000002 0.010261 0.376727 -3.123252 0.094504 1.139125 -9.483825 0.119201 1.278212 -10.654737 0.000003 0.000000 -0.000001 0.052471 0.850222 -7.063665 0.125651 1.312009 -10.939981 0.142830 1.397990 -11.666942 0.000001 0.000001 0.000001 1.032661 5.464073 -12.101927 0.160862 -2.552511 -13.058185 0.165429 1.503237 -12.559622 0.000003 0.000000 0.000002 0.824761 -1.411934 13.392426 29.500922 30.884551 22.787217 -0.000042 73.263860 0.000022 11.168231 10.403981 -23.412015 -2.167950 -15.542128 -8.494151 5.697556 -20.650915 -1.018588 -0.236530 -11.852636 -3.315956 0.000001 -0.000005 -0.000002 -0.000004 0.000001 0.000008 0.065381 -0.953274 7.847552 0.065394 -0.953291 7.847563 -0.000001 0.000003 0.000003 0.019781 -0.525439 4.315892 0.096571 -1.157112 9.540107 0.117349 -1.274613 10.519862 -0.000001 0.000000 -0.000001 0.100050 -1.177735 9.711836 0.192799 -1.629182 13.496540 0.213479 -1.713098 14.206326 0.000002 -0.000001 -0.000002 0.314714 -2.072096 17.270652 0.314698 -2.072104 17.270656 0.314717 -2.072111 17.270642 -0.000000 0.000000 0.000000 -45.956679 -4.687587 6.287085 66.518126 9.018881 4.782873 5.362142 4.483384 0.430940 -3.453295 0.000009 0.000009 0.000002 -0.000003 -0.000001 -24.856706 -15.221580 12.782668 51.008396 4.703010 -1.773552 -15.893160 2.451692 -12.956176 0.601805 -0.000002 -0.000003 0.000000 0.000001 -0.000000 
-0.214436 3.098574 0.265092 -7.698132 -1.808856 -6.592301 19.365640 4.936808 4.267053 4.745563 0.498214 2.846007 4.715311 0.580479 2.865883 -0.888467 0.212830 0.660619 -10.548438 -1.619883 1.598333 0.000001 0.000000 0.000000 0.073513 2.106830 0.906113 31.770960 -22.440380 -47.125641 0.000046 -75.999979 0.000056 -6.055767 -7.503132 14.758289 -1.805320 14.608658 7.803170 4.820936 18.910108 1.546115 0.375518 12.515275 3.566397 0.000002 0.000000 0.000001 0.000001 0.000006 -0.000007 0.109342 1.224723 -10.203901 0.109352 1.224720 -10.203891 -0.000003 -0.000002 -0.000001 0.010272 0.376713 -3.123259 0.094487 1.139142 -9.483823 0.119206 1.278213 -10.654740 0.000000 0.000000 -0.000002 0.052476 0.850227 -7.063666 0.125655 1.312008 -10.939991 0.142826 1.397989 -11.666940 -0.000000 -0.000002 0.000001 1.032680 5.464092 -12.101915 0.160864 -2.552539 -13.058207 0.165428 1.503239 -12.559617 -0.000002 0.000000 -0.000001 0.815356 -0.784527 14.494899 27.567012 31.535161 23.509014 0.000030 72.757320 -0.000022 11.012294 9.919876 -23.664517 -2.167949 -15.542126 -8.494150 5.697559 -20.650916 -1.018590 -0.236532 -11.852636 -3.315961 -0.000001 0.000000 -0.000003 -0.000004 -0.000014 -0.000007 0.065382 -0.953272 7.847550 0.065392 -0.953295 7.847561 0.000000 -0.000001 0.000005 0.019798 -0.525463 4.315870 0.096564 -1.157101 9.540112 0.117332 -1.274635 10.519874 -0.000001 -0.000003 0.000004 0.100057 -1.177732 9.711830 0.192793 -1.629179 13.496526 0.213479 -1.713106 14.206355 0.000002 0.000003 -0.000000 0.314732 -2.072122 17.270651 0.314704 -2.072096 17.270644 0.314714 -2.072115 17.270656 -0.000001 0.000005 0.000000 -46.034232 -3.914240 6.347361 60.249386 8.566160 5.038887 5.722861 2.350044 -1.391236 -3.320228 -0.000010 0.000002 0.000000 -0.000002 -0.000000 -23.659985 -13.717089 14.431001 50.558747 5.653185 -1.396004 -16.470721 2.623444 -13.423590 0.472790 0.000002 0.000002 -0.000000 0.000001 0.000000 
-0.224460 3.103081 0.301698 -7.845650 -3.222363 -7.297189 19.692474 6.010590 4.271884 4.950114 0.656388 2.992830 4.918661 0.743329 3.012615 0.552006 0.103799 0.259726 -11.679616 -2.334162 1.750314 0.000001 0.000000 0.000000 0.014813 2.865792 0.627873 35.851339 -20.008312 -45.620189 -0.000081 -77.207051 -0.000011 -7.318207 -7.654275 14.040652 -1.805329 14.608658 7.803178 4.820934 18.910113 1.546119 0.375514 12.515276 3.566391 0.000001 0.000000 -0.000003 0.000001 -0.000011 -0.000010 0.109341 1.224722 -10.203899 0.109348 1.224719 -10.203893 -0.000001 -0.000001 0.000001 0.010266 0.376716 -3.123248 0.094494 1.139157 -9.483820 0.119196 1.278216 -10.654743 -0.000000 0.000000 -0.000002 0.052482 0.850232 -7.063658 0.125650 1.311994 -10.939996 0.142834 1.397991 -11.666940 0.000004 0.000002 0.000001 1.032666 5.464090 -12.101939 0.160866 -2.552516 -13.058178 0.165427 1.503237 -12.559613 -0.000002 -0.000000 -0.000001 0.780084 -0.308989 14.957110 25.781589 31.430048 24.936507 -0.000034 72.290278 0.000034 10.447107 9.622225 -23.605714 -2.167948 -15.542133 -8.494149 5.697552 -20.650913 -1.018588 -0.236534 -11.852630 -3.315954 0.000003 -0.000003 -0.000004 0.000000 -0.000011 -0.000003 0.065384 -0.953277 7.847550 0.065397 -0.953294 7.847564 -0.000002 0.000000 -0.000001 0.019786 -0.525466 4.315879 0.096558 -1.157106 9.540104 0.117357 -1.274633 10.519872 -0.000001 0.000002 0.000001 0.100047 -1.177740 9.711830 0.192795 -1.629170 13.496539 0.213472 -1.713093 14.206348 0.000000 -0.000001 -0.000001 0.314711 -2.072118 17.270644 0.314711 -2.072107 17.270644 0.314712 -2.072122 17.270656 -0.000000 -0.000002 -0.000001 -45.749970 -2.939593 6.650242 53.657669 8.077620 4.849779 7.480653 0.696058 -3.712340 -3.331941 -0.000011 -0.000002 0.000000 -0.000005 -0.000000 -22.846740 -12.228614 15.640047 50.304323 6.457447 -1.088909 -16.081569 2.279173 -12.602432 0.399250 0.000005 -0.000003 0.000000 0.000001 0.000000 
